#!OML:ASF H:\Terrain\Patient Classification 1\Animal2\Wednesday\Animal2.ASF
:FULLY-SPECIFIED
:DEGREES
1630
root 5.20933 17.5588 -2.92161 22.3948 -8.21702 -2.14695
lowerback 18.5915 -1.62674 3.30453
upperback 5.06537 -1.5778 -0.72391
thorax -5.05548 -0.798627 -2.29252
lowerneck 8.51928 7.94434 15.3911
upperneck -9.55492 10.5157 -24.7686
head -1.87666 6.05798 -10.7196
rclavicle -8.74653e-015 -7.55382e-015
rhumerus -53.7066 -3.74162 -3.98943
rradius 11.9241
rwrist 32.4995
rhand -3.89271 22.0749
rfingers 7.12502
rthumb 21.857 -6.71071
lclavicle -8.74653e-015 -7.55382e-015
lhumerus -54.5754 -3.14793 11.7535
lradius 11.9856
lwrist 2.84495
lhand -20.4942 32.6257
lfingers 7.12502
lthumb 5.8627 62.5246
rfemur -41.2548 -2.67996 1.61604
rtibia 53.8953
rfoot -4.08804 -4.74817
rtoes 3.39114
lfemur -40.3642 -8.25092 -1.53821
ltibia 35.3635
lfoot -17.2891 -9.70028
ltoes -33.8605
1631
root 5.19886 17.6154 -2.8599 22.1013 -7.68858 -1.72693
lowerback 18.5601 -1.65184 3.00616
upperback 4.99552 -1.66694 -0.78452
thorax -5.11429 -0.840772 -2.16702
lowerneck 8.54587 8.09413 15.517
upperneck -9.47098 10.754 -24.8461
head -1.79357 6.17674 -10.7546
rclavicle -2.10712e-014 1.39149e-014
rhumerus -53.3397 -2.28793 -5.08276
rradius 12.119
rwrist 29.5281
rhand -3.01865 21.0322
rfingers 7.12502
rthumb 22.6961 -7.65308
lclavicle -2.10712e-014 1.39149e-014
lhumerus -54.4244 -4.122 12.1653
lradius 12.1364
lwrist 4.87675
lhand -21.4687 33.4925
lfingers 7.12502
lthumb 4.92176 63.4153
rfemur -41.1092 -2.48735 1.22209
rtibia 53.1
rfoot -4.18696 -4.50339
rtoes 1.2682
lfemur -39.6296 -8.4257 -2.14928
ltibia 34.5279
lfoot -16.3763 -10.2469
ltoes -33.0658
1632
root 5.18577 17.6624 -2.79938 21.9602 -7.43624 -1.39437
lowerback 18.4502 -1.61688 2.65126
upperback 4.83746 -1.69407 -0.895549
thorax -5.22171 -0.854017 -2.07769
lowerneck 8.67727 8.21107 15.7469
upperneck -9.39237 10.9672 -24.9744
head -1.72508 6.28762 -10.8336
rclavicle -4.77083e-014 2.42517e-014
rhumerus -52.8304 -2.50463 -4.49965
rradius 12.079
rwrist 29.2022
rhand -2.53764 20.2854
rfingers 7.12502
rthumb 23.1576 -8.34263
lclavicle -4.77083e-014 2.42517e-014
lhumerus -54.0756 -3.1727 10.2346
lradius 11.9356
lwrist 3.49557
lhand -21.9862 33.8553
lfingers 7.12502
lthumb 4.42211 63.7891
rfemur -41.1691 -2.04409 0.803599
rtibia 52.1754
rfoot -4.12333 -4.35694
rtoes 1.13223
lfemur -38.9884 -8.44127 -2.68011
ltibia 33.7376
lfoot -15.6641 -10.5649
ltoes -31.7803
1633
root 5.17007 17.7093 -2.73643 21.8021 -6.9738 -1.39446
lowerback 18.2941 -1.63856 2.6787
upperback 4.78185 -1.7175 -0.857993
thorax -5.19948 -0.865502 -2.05007
lowerneck 8.62663 8.27573 15.6545
upperneck -9.3327 11.0547 -24.8785
head -1.69357 6.32493 -10.7731
rclavicle -2.82274e-014 2.8625e-014
rhumerus -52.4411 -4.55478 -2.243
rradius 11.9578
rwrist 31.9525
rhand -2.85364 19.8254
rfingers 7.12502
rthumb 22.8544 -8.84042
lclavicle -2.82274e-014 2.8625e-014
lhumerus -53.7156 -1.75389 7.95071
lradius 11.6863
lwrist 1.36785
lhand -22.0487 33.8093
lfingers 7.12502
lthumb 4.3617 63.7444
rfemur -41.0603 -1.48725 0.795889
rtibia 51.2124
rfoot -4.14288 -4.32764
rtoes 2.44322
lfemur -38.4745 -8.53104 -2.74253
ltibia 33.1956
lfoot -14.9647 -10.7513
ltoes -31.0328
1634
root 5.15182 17.7594 -2.67364 21.7209 -6.38167 -1.39885
lowerback 17.9327 -1.66923 2.77674
upperback 4.81891 -1.74312 -0.763686
thorax -4.9693 -0.875115 -2.00663
lowerneck 8.39577 8.41234 15.3869
upperneck -9.28125 11.1977 -24.8157
head -1.6299 6.38848 -10.6788
rclavicle 2.5842e-014 -6.75868e-015
rhumerus -52.0767 -5.72877 -0.982842
rradius 11.9629
rwrist 33.3
rhand -2.86474 19.2202
rfingers 7.12502
rthumb 22.8438 -9.44693
lclavicle 2.5842e-014 -6.75868e-015
lhumerus -53.4472 -1.06584 6.81117
lradius 11.6381
lwrist 0.780485
lhand -22.0795 33.9461
lfingers 7.12502
lthumb 4.33204 63.8817
rfemur -40.9488 -0.936266 0.818467
rtibia 50.1382
rfoot -4.3899 -4.25999
rtoes 2.88168
lfemur -38.1229 -8.63162 -2.75403
ltibia 32.7293
lfoot -14.1382 -11.1014
ltoes -31.5863
1635
root 5.13055 17.7658 -2.61758 21.8387 -5.76659 -1.66091
lowerback 17.561 -1.68325 3.15271
upperback 4.67813 -1.69797 -0.656895
thorax -4.92587 -0.856433 -2.12163
lowerneck 8.44511 8.55406 15.597
upperneck -9.1249 11.4352 -25.1264
head -1.50731 6.51546 -10.8062
rclavicle 1.90833e-014 -8.74653e-015
rhumerus -51.6126 -5.91016 -0.533834
rradius 11.8796
rwrist 33.3268
rhand -2.7731 18.5992
rfingers 7.12502
rthumb 22.9317 -10.0571
lclavicle 1.90833e-014 -8.74653e-015
lhumerus -53.2779 -1.98149 7.27143
lradius 11.7831
lwrist 2.82818
lhand -23.0646 33.9762
lfingers 7.12502
lthumb 3.38076 63.9292
rfemur -41.1853 -0.291602 1.05516
rtibia 49.1043
rfoot -4.47156 -4.1305
rtoes 3.34679
lfemur -38.0328 -8.38946 -2.48247
ltibia 32.3864
lfoot -13.5051 -11.788
ltoes -31.4445
1636
root 5.11358 17.8094 -2.56131 21.8795 -5.25522 -1.95983
lowerback 17.439 -1.71215 3.50135
upperback 4.45095 -1.67224 -0.604565
thorax -5.10894 -0.851824 -2.26905
lowerneck 8.68975 8.66842 16.0859
upperneck -9.01397 11.6864 -25.462
head -1.40639 6.65369 -11.0053
rclavicle -1.98785e-015 7.95139e-016
rhumerus -51.0289 -6.0172 -0.234292
rradius 11.8927
rwrist 33.0151
rhand -2.55406 17.8821
rfingers 7.12502
rthumb 23.1419 -10.7479
lclavicle -1.98785e-015 7.95139e-016
lhumerus -53.2205 -2.84295 7.34778
lradius 11.9141
lwrist 4.42704
lhand -24.1088 33.8096
lfingers 7.12502
lthumb 2.37227 63.7761
rfemur -41.2986 0.372425 1.33014
rtibia 47.8683
rfoot -4.45986 -3.85161
rtoes 4.5914
lfemur -37.7454 -8.07471 -2.25917
ltibia 31.9627
lfoot -13.049 -12.417
ltoes -30.3563
